STARTFONT 2.1
FONT -Bitstream-Terminal-Medium-R-Normal-GS-18-140-100-100-C-110-ISO8859-1
SIZE 14 100 100
FONTBOUNDINGBOX 11 19 0 -5

STARTPROPERTIES 25
CHARSET_REGISTRY "ISO8859"
CHARSET_ENCODING "1"
CAP_HEIGHT 12
X_HEIGHT 9
AVERAGE_WIDTH 110
FONTNAME_REGISTRY ""
FAMILY_NAME "Terminal"
FOUNDRY "Bitstream"
WEIGHT_NAME "Medium"
SETWIDTH_NAME "Normal"
SLANT "R"
ADD_STYLE_NAME "GS"
PIXEL_SIZE 18
POINT_SIZE 140
RESOLUTION_X 100
RESOLUTION_Y 100
SPACING "C"
CHARSET_COLLECTIONS "ASCII ISO8859-1"
FULL_NAME "Terminal"
COPYRIGHT "Copyright (c) 1988 Bitstream, Inc., Copyright 1990 Digital Equipment Corp."
WEIGHT 10
QUAD_WIDTH 11
DEFAULT_CHAR 159
FONT_DESCENT 5
FONT_ASCENT 15
ENDPROPERTIES

CHARS 193

STARTCHAR space
ENCODING 32
SWIDTH 565 0
DWIDTH 11 0
BBX 1 1 0 0
BITMAP
00
ENDCHAR

STARTCHAR exclam
ENCODING 33
SWIDTH 565 0
DWIDTH 11 0
BBX 4 12 4 0
BITMAP
60
60
60
60
60
60
60
60
00
60
F0
60
ENDCHAR

STARTCHAR quotedbl
ENCODING 34
SWIDTH 565 0
DWIDTH 11 0
BBX 6 5 3 8
BITMAP
CC
CC
CC
CC
CC
ENDCHAR

STARTCHAR numbersign
ENCODING 35
SWIDTH 565 0
DWIDTH 11 0
BBX 9 14 1 -3
BITMAP
3600
3600
3600
3600
3600
FF80
3600
3600
FF80
3600
3600
3600
3600
3600
ENDCHAR

STARTCHAR dollar
ENCODING 36
SWIDTH 565 0
DWIDTH 11 0
BBX 8 16 2 -3
BITMAP
08
08
7B
E7
C3
C0
E0
7E
03
03
C3
E3
DE
10
10
10
ENDCHAR

STARTCHAR percent
ENCODING 37
SWIDTH 565 0
DWIDTH 11 0
BBX 10 12 1 0
BITMAP
7000
D800
8880
D900
7200
0400
0800
1380
26C0
4440
06C0
0380
ENDCHAR

STARTCHAR ampersand
ENCODING 38
SWIDTH 565 0
DWIDTH 11 0
BBX 7 12 2 0
BITMAP
34
7C
64
60
60
20
76
D4
DC
CC
CC
76
ENDCHAR

STARTCHAR quoteright
ENCODING 39
SWIDTH 565 0
DWIDTH 11 0
BBX 4 5 4 8
BITMAP
70
60
60
C0
40
ENDCHAR

STARTCHAR parenleft
ENCODING 40
SWIDTH 565 0
DWIDTH 11 0
BBX 4 16 4 -3
BITMAP
10
20
60
40
C0
C0
C0
C0
C0
C0
C0
C0
40
60
20
10
ENDCHAR

STARTCHAR parenright
ENCODING 41
SWIDTH 565 0
DWIDTH 11 0
BBX 4 16 4 -3
BITMAP
80
40
60
20
30
30
30
30
30
30
30
30
20
60
40
80
ENDCHAR

STARTCHAR asterisk
ENCODING 42
SWIDTH 565 0
DWIDTH 11 0
BBX 8 8 2 3
BITMAP
18
18
DB
7E
3C
3C
66
66
ENDCHAR

STARTCHAR plus
ENCODING 43
SWIDTH 565 0
DWIDTH 11 0
BBX 8 10 2 0
BITMAP
18
18
18
18
FF
FF
18
18
18
18
ENDCHAR

STARTCHAR comma
ENCODING 44
SWIDTH 565 0
DWIDTH 11 0
BBX 4 6 4 -3
BITMAP
70
70
60
60
C0
40
ENDCHAR

STARTCHAR minus
ENCODING 45
SWIDTH 565 0
DWIDTH 11 0
BBX 9 2 1 4
BITMAP
FF80
FF80
ENDCHAR

STARTCHAR period
ENCODING 46
SWIDTH 565 0
DWIDTH 11 0
BBX 4 3 4 0
BITMAP
60
F0
60
ENDCHAR

STARTCHAR slash
ENCODING 47
SWIDTH 565 0
DWIDTH 11 0
BBX 8 13 2 -1
BITMAP
03
02
06
04
0C
08
18
10
30
20
60
40
C0
ENDCHAR

STARTCHAR zero
ENCODING 48
SWIDTH 565 0
DWIDTH 11 0
BBX 6 12 3 0
BITMAP
30
78
48
CC
CC
CC
CC
CC
CC
48
78
30
ENDCHAR

STARTCHAR one
ENCODING 49
SWIDTH 565 0
DWIDTH 11 0
BBX 6 12 3 0
BITMAP
30
70
F0
B0
30
30
30
30
30
30
30
FC
ENDCHAR

STARTCHAR two
ENCODING 50
SWIDTH 565 0
DWIDTH 11 0
BBX 6 12 3 0
BITMAP
78
CC
8C
0C
08
18
30
60
60
C0
CC
FC
ENDCHAR

STARTCHAR three
ENCODING 51
SWIDTH 565 0
DWIDTH 11 0
BBX 6 12 3 0
BITMAP
78
CC
0C
0C
08
70
08
0C
0C
0C
CC
78
ENDCHAR

STARTCHAR four
ENCODING 52
SWIDTH 565 0
DWIDTH 11 0
BBX 7 12 3 0
BITMAP
0C
1C
3C
2C
6C
4C
CC
CC
FE
0C
0C
0C
ENDCHAR

STARTCHAR five
ENCODING 53
SWIDTH 565 0
DWIDTH 11 0
BBX 6 12 3 0
BITMAP
F8
C0
C0
C0
F0
98
0C
0C
0C
0C
D8
70
ENDCHAR

STARTCHAR six
ENCODING 54
SWIDTH 565 0
DWIDTH 11 0
BBX 6 12 3 0
BITMAP
18
30
60
60
C0
F8
CC
CC
CC
CC
78
30
ENDCHAR

STARTCHAR seven
ENCODING 55
SWIDTH 565 0
DWIDTH 11 0
BBX 6 12 3 0
BITMAP
FC
CC
0C
0C
18
18
18
30
30
60
60
60
ENDCHAR

STARTCHAR eight
ENCODING 56
SWIDTH 565 0
DWIDTH 11 0
BBX 6 12 3 0
BITMAP
78
CC
CC
CC
48
78
CC
CC
CC
CC
CC
78
ENDCHAR

STARTCHAR nine
ENCODING 57
SWIDTH 565 0
DWIDTH 11 0
BBX 6 12 3 0
BITMAP
30
78
CC
CC
CC
CC
7C
0C
18
18
30
60
ENDCHAR

STARTCHAR colon
ENCODING 58
SWIDTH 565 0
DWIDTH 11 0
BBX 4 9 4 0
BITMAP
60
F0
60
00
00
00
60
F0
60
ENDCHAR

STARTCHAR semicolon
ENCODING 59
SWIDTH 565 0
DWIDTH 11 0
BBX 5 12 3 -3
BITMAP
30
78
30
00
00
00
70
70
60
60
C0
40
ENDCHAR

STARTCHAR less
ENCODING 60
SWIDTH 565 0
DWIDTH 11 0
BBX 9 9 1 1
BITMAP
0180
0780
1E00
7800
E000
7800
1E00
0780
0180
ENDCHAR

STARTCHAR equal
ENCODING 61
SWIDTH 565 0
DWIDTH 11 0
BBX 8 6 2 2
BITMAP
FF
FF
00
00
FF
FF
ENDCHAR

STARTCHAR greater
ENCODING 62
SWIDTH 565 0
DWIDTH 11 0
BBX 9 9 1 1
BITMAP
C000
F000
3C00
0F00
0380
0F00
3C00
F000
C000
ENDCHAR

STARTCHAR question
ENCODING 63
SWIDTH 565 0
DWIDTH 11 0
BBX 8 12 2 0
BITMAP
7E
C7
03
03
03
0E
38
30
00
30
78
30
ENDCHAR

STARTCHAR at
ENCODING 64
SWIDTH 565 0
DWIDTH 11 0
BBX 10 14 1 -2
BITMAP
1C00
6300
4100
C180
C780
C980
D980
D980
D980
CFC0
C000
6000
7080
1F00
ENDCHAR

STARTCHAR A
ENCODING 65
SWIDTH 565 0
DWIDTH 11 0
BBX 9 12 1 0
BITMAP
0800
1C00
1400
3600
3600
6300
6300
6300
7F00
C180
C180
C180
ENDCHAR

STARTCHAR B
ENCODING 66
SWIDTH 565 0
DWIDTH 11 0
BBX 8 12 2 0
BITMAP
FC
C6
C6
C6
C6
FC
C6
C3
C3
C3
C3
FE
ENDCHAR

STARTCHAR C
ENCODING 67
SWIDTH 565 0
DWIDTH 11 0
BBX 8 12 2 0
BITMAP
3E
63
C0
C0
C0
C0
C0
C0
C0
C1
63
3E
ENDCHAR

STARTCHAR D
ENCODING 68
SWIDTH 565 0
DWIDTH 11 0
BBX 8 12 2 0
BITMAP
FC
C6
C3
C3
C3
C3
C3
C3
C3
C3
C6
FC
ENDCHAR

STARTCHAR E
ENCODING 69
SWIDTH 565 0
DWIDTH 11 0
BBX 7 12 3 0
BITMAP
FE
C0
C0
C0
C0
FC
C0
C0
C0
C0
C0
FE
ENDCHAR

STARTCHAR F
ENCODING 70
SWIDTH 565 0
DWIDTH 11 0
BBX 7 12 3 0
BITMAP
FE
C0
C0
C0
C0
FC
C0
C0
C0
C0
C0
C0
ENDCHAR

STARTCHAR G
ENCODING 71
SWIDTH 565 0
DWIDTH 11 0
BBX 8 12 2 0
BITMAP
3E
63
C0
C0
C0
C0
C7
C3
C3
C3
63
3F
ENDCHAR

STARTCHAR H
ENCODING 72
SWIDTH 565 0
DWIDTH 11 0
BBX 8 12 2 0
BITMAP
C3
C3
C3
C3
C3
FF
C3
C3
C3
C3
C3
C3
ENDCHAR

STARTCHAR I
ENCODING 73
SWIDTH 565 0
DWIDTH 11 0
BBX 6 12 3 0
BITMAP
FC
30
30
30
30
30
30
30
30
30
30
FC
ENDCHAR

STARTCHAR J
ENCODING 74
SWIDTH 565 0
DWIDTH 11 0
BBX 7 12 2 0
BITMAP
06
06
06
06
06
06
06
06
06
06
C6
7C
ENDCHAR

STARTCHAR K
ENCODING 75
SWIDTH 565 0
DWIDTH 11 0
BBX 8 12 2 0
BITMAP
C3
C3
C6
CC
D8
F0
F8
CC
CC
C6
C3
C3
ENDCHAR

STARTCHAR L
ENCODING 76
SWIDTH 565 0
DWIDTH 11 0
BBX 7 12 3 0
BITMAP
C0
C0
C0
C0
C0
C0
C0
C0
C0
C0
C0
FE
ENDCHAR

STARTCHAR M
ENCODING 77
SWIDTH 565 0
DWIDTH 11 0
BBX 8 12 2 0
BITMAP
C3
C3
E7
E7
FF
DB
DB
DB
DB
C3
C3
C3
ENDCHAR

STARTCHAR N
ENCODING 78
SWIDTH 565 0
DWIDTH 11 0
BBX 8 12 2 0
BITMAP
C3
E3
E3
D3
D3
D3
CB
CB
CB
C7
C7
C3
ENDCHAR

STARTCHAR O
ENCODING 79
SWIDTH 565 0
DWIDTH 11 0
BBX 8 12 2 0
BITMAP
3C
66
C3
C3
C3
C3
C3
C3
C3
C3
66
3C
ENDCHAR

STARTCHAR P
ENCODING 80
SWIDTH 565 0
DWIDTH 11 0
BBX 7 12 3 0
BITMAP
FC
C6
C6
C6
C6
C6
C6
FC
C0
C0
C0
C0
ENDCHAR

STARTCHAR Q
ENCODING 81
SWIDTH 565 0
DWIDTH 11 0
BBX 8 15 2 -3
BITMAP
3C
66
C3
C3
C3
C3
C3
C3
C3
C3
6E
3C
0C
06
03
ENDCHAR

STARTCHAR R
ENCODING 82
SWIDTH 565 0
DWIDTH 11 0
BBX 8 12 2 0
BITMAP
FE
C3
C3
C3
C3
C3
FC
C6
C6
C3
C3
C3
ENDCHAR

STARTCHAR S
ENCODING 83
SWIDTH 565 0
DWIDTH 11 0
BBX 8 12 2 0
BITMAP
3C
66
C0
C0
F0
7C
1E
07
03
03
C6
7C
ENDCHAR

STARTCHAR T
ENCODING 84
SWIDTH 565 0
DWIDTH 11 0
BBX 8 12 2 0
BITMAP
FF
18
18
18
18
18
18
18
18
18
18
18
ENDCHAR

STARTCHAR U
ENCODING 85
SWIDTH 565 0
DWIDTH 11 0
BBX 8 12 2 0
BITMAP
C3
C3
C3
C3
C3
C3
C3
C3
C3
C3
66
3C
ENDCHAR

STARTCHAR V
ENCODING 86
SWIDTH 565 0
DWIDTH 11 0
BBX 9 12 1 0
BITMAP
C180
C180
C180
C180
6300
6300
6300
3600
3600
1400
1C00
0800
ENDCHAR

STARTCHAR W
ENCODING 87
SWIDTH 565 0
DWIDTH 11 0
BBX 8 12 2 0
BITMAP
C3
C3
C3
C3
C3
DB
DB
DB
FF
66
66
66
ENDCHAR

STARTCHAR X
ENCODING 88
SWIDTH 565 0
DWIDTH 11 0
BBX 7 12 2 0
BITMAP
C6
C6
C6
6C
6C
38
38
28
6C
C6
C6
C6
ENDCHAR

STARTCHAR Y
ENCODING 89
SWIDTH 565 0
DWIDTH 11 0
BBX 8 12 2 0
BITMAP
C3
C3
C3
66
66
3C
18
18
18
18
18
18
ENDCHAR

STARTCHAR Z
ENCODING 90
SWIDTH 565 0
DWIDTH 11 0
BBX 8 12 2 0
BITMAP
FF
C3
06
06
0C
18
18
30
60
60
C3
FF
ENDCHAR

STARTCHAR bracketleft
ENCODING 91
SWIDTH 565 0
DWIDTH 11 0
BBX 4 14 4 -1
BITMAP
F0
C0
C0
C0
C0
C0
C0
C0
C0
C0
C0
C0
C0
F0
ENDCHAR

STARTCHAR backslash
ENCODING 92
SWIDTH 565 0
DWIDTH 11 0
BBX 8 13 2 -1
BITMAP
C0
40
60
20
30
10
18
08
0C
04
06
02
03
ENDCHAR

STARTCHAR bracketright
ENCODING 93
SWIDTH 565 0
DWIDTH 11 0
BBX 4 14 4 -1
BITMAP
F0
30
30
30
30
30
30
30
30
30
30
30
30
F0
ENDCHAR

STARTCHAR asciicircum
ENCODING 94
SWIDTH 565 0
DWIDTH 11 0
BBX 7 4 3 5
BITMAP
10
38
6C
C6
ENDCHAR

STARTCHAR underscore
ENCODING 95
SWIDTH 565 0
DWIDTH 11 0
BBX 10 2 1 0
BITMAP
FFC0
FFC0
ENDCHAR

STARTCHAR quoteleft
ENCODING 96
SWIDTH 565 0
DWIDTH 11 0
BBX 6 5 3 8
BITMAP
C0
E0
30
18
04
ENDCHAR

STARTCHAR a
ENCODING 97
SWIDTH 565 0
DWIDTH 11 0
BBX 9 9 1 0
BITMAP
3E00
6300
0300
0300
7F00
C300
C300
E700
7B80
ENDCHAR

STARTCHAR b
ENCODING 98
SWIDTH 565 0
DWIDTH 11 0
BBX 8 12 2 0
BITMAP
C0
C0
C0
DC
E6
C3
C3
C3
C3
C3
E6
DC
ENDCHAR

STARTCHAR c
ENCODING 99
SWIDTH 565 0
DWIDTH 11 0
BBX 8 9 2 0
BITMAP
3E
63
C0
C0
C0
C0
C1
63
3E
ENDCHAR

STARTCHAR d
ENCODING 100
SWIDTH 565 0
DWIDTH 11 0
BBX 8 12 1 0
BITMAP
03
03
03
3B
67
C3
C3
C3
C3
C3
67
3B
ENDCHAR

STARTCHAR e
ENCODING 101
SWIDTH 565 0
DWIDTH 11 0
BBX 9 9 1 0
BITMAP
3E00
6300
C180
C180
FF80
C000
C000
6180
3F00
ENDCHAR

STARTCHAR f
ENCODING 102
SWIDTH 565 0
DWIDTH 11 0
BBX 8 12 2 0
BITMAP
1F
30
30
FF
30
30
30
30
30
30
30
30
ENDCHAR

STARTCHAR g
ENCODING 103
SWIDTH 565 0
DWIDTH 11 0
BBX 8 12 1 -3
BITMAP
3F
63
C3
C3
C3
C3
C3
67
3B
03
06
7C
ENDCHAR

STARTCHAR h
ENCODING 104
SWIDTH 565 0
DWIDTH 11 0
BBX 7 12 2 0
BITMAP
C0
C0
C0
DC
EE
C6
C6
C6
C6
C6
C6
C6
ENDCHAR

STARTCHAR i
ENCODING 105
SWIDTH 565 0
DWIDTH 11 0
BBX 8 13 2 0
BITMAP
18
18
00
00
78
18
18
18
18
18
18
18
FF
ENDCHAR

STARTCHAR j
ENCODING 106
SWIDTH 565 0
DWIDTH 11 0
BBX 6 16 2 -3
BITMAP
0C
0C
00
00
7C
0C
0C
0C
0C
0C
0C
0C
0C
0C
0C
F8
ENDCHAR

STARTCHAR k
ENCODING 107
SWIDTH 565 0
DWIDTH 11 0
BBX 8 12 2 0
BITMAP
C0
C0
C0
C6
CC
D8
F0
F0
D8
CC
C6
C3
ENDCHAR

STARTCHAR l
ENCODING 108
SWIDTH 565 0
DWIDTH 11 0
BBX 8 12 2 0
BITMAP
78
18
18
18
18
18
18
18
18
18
18
FF
ENDCHAR

STARTCHAR m
ENCODING 109
SWIDTH 565 0
DWIDTH 11 0
BBX 9 9 1 0
BITMAP
DB00
ED80
C980
C980
C980
C980
C980
C980
C980
ENDCHAR

STARTCHAR n
ENCODING 110
SWIDTH 565 0
DWIDTH 11 0
BBX 7 9 2 0
BITMAP
DC
E6
C6
C6
C6
C6
C6
C6
C6
ENDCHAR

STARTCHAR o
ENCODING 111
SWIDTH 565 0
DWIDTH 11 0
BBX 9 9 1 0
BITMAP
3E00
6300
C180
C180
C180
C180
C180
6300
3E00
ENDCHAR

STARTCHAR p
ENCODING 112
SWIDTH 565 0
DWIDTH 11 0
BBX 8 12 2 -3
BITMAP
DC
E6
C3
C3
C3
C3
C3
E6
DC
C0
C0
C0
ENDCHAR

STARTCHAR q
ENCODING 113
SWIDTH 565 0
DWIDTH 11 0
BBX 8 12 1 -3
BITMAP
3F
63
C3
C3
C3
C3
C3
67
3B
03
03
03
ENDCHAR

STARTCHAR r
ENCODING 114
SWIDTH 565 0
DWIDTH 11 0
BBX 7 9 3 0
BITMAP
CE
F6
E0
C0
C0
C0
C0
C0
C0
ENDCHAR

STARTCHAR s
ENCODING 115
SWIDTH 565 0
DWIDTH 11 0
BBX 8 9 2 0
BITMAP
7E
C3
C0
F0
7E
0F
03
C3
7E
ENDCHAR

STARTCHAR t
ENCODING 116
SWIDTH 565 0
DWIDTH 11 0
BBX 9 12 1 0
BITMAP
3000
3000
3000
FF00
3000
3000
3000
3000
3000
3000
3180
1E00
ENDCHAR

STARTCHAR u
ENCODING 117
SWIDTH 565 0
DWIDTH 11 0
BBX 7 9 2 0
BITMAP
C6
C6
C6
C6
C6
C6
C6
CE
76
ENDCHAR

STARTCHAR v
ENCODING 118
SWIDTH 565 0
DWIDTH 11 0
BBX 8 9 2 0
BITMAP
C3
C3
C3
66
66
24
3C
18
18
ENDCHAR

STARTCHAR w
ENCODING 119
SWIDTH 565 0
DWIDTH 11 0
BBX 9 9 1 0
BITMAP
C180
C980
C980
C980
DD80
D580
7700
6300
6300
ENDCHAR

STARTCHAR x
ENCODING 120
SWIDTH 565 0
DWIDTH 11 0
BBX 7 9 2 0
BITMAP
C6
C6
6C
7C
38
28
6C
C6
C6
ENDCHAR

STARTCHAR y
ENCODING 121
SWIDTH 565 0
DWIDTH 11 0
BBX 8 12 2 -3
BITMAP
C3
C3
C3
66
66
24
3C
18
18
10
30
30
ENDCHAR

STARTCHAR z
ENCODING 122
SWIDTH 565 0
DWIDTH 11 0
BBX 7 9 2 0
BITMAP
FE
06
0C
18
10
30
60
C0
FE
ENDCHAR

STARTCHAR braceleft
ENCODING 123
SWIDTH 565 0
DWIDTH 11 0
BBX 6 15 3 -2
BITMAP
1C
30
30
30
30
30
60
C0
60
30
30
30
30
30
1C
ENDCHAR

STARTCHAR bar
ENCODING 124
SWIDTH 565 0
DWIDTH 11 0
BBX 2 18 5 -4
BITMAP
C0
C0
C0
C0
C0
C0
C0
C0
C0
C0
C0
C0
C0
C0
C0
C0
C0
C0
ENDCHAR

STARTCHAR braceright
ENCODING 125
SWIDTH 565 0
DWIDTH 11 0
BBX 6 15 3 -2
BITMAP
E0
30
30
30
30
30
18
0C
18
30
30
30
30
30
E0
ENDCHAR

STARTCHAR asciitilde
ENCODING 126
SWIDTH 565 0
DWIDTH 11 0
BBX 7 3 2 5
BITMAP
62
BA
8C
ENDCHAR

STARTCHAR OE
ENCODING 128
SWIDTH 565 0
DWIDTH 11 0
BBX 11 11 0 0
BITMAP
3FE0
6600
C600
C600
C600
C7C0
C600
C600
C600
6600
3FE0
ENDCHAR

STARTCHAR oe
ENCODING 129
SWIDTH 565 0
DWIDTH 11 0
BBX 11 9 0 0
BITMAP
39C0
6F60
C660
C660
C7E0
C600
C600
6F60
39C0
ENDCHAR

STARTCHAR Ydieresis
ENCODING 130
SWIDTH 565 0
DWIDTH 11 0
BBX 8 13 2 0
BITMAP
66
66
00
C3
C3
66
24
3C
18
18
18
18
18
ENDCHAR

STARTCHAR exclamdown
ENCODING 161
SWIDTH 565 0
DWIDTH 11 0
BBX 4 13 4 -1
BITMAP
60
F0
60
00
60
60
60
60
60
60
60
60
60
ENDCHAR

STARTCHAR cent
ENCODING 162
SWIDTH 565 0
DWIDTH 11 0
BBX 8 14 2 -2
BITMAP
08
08
3E
63
C1
C0
C0
C0
C0
63
3E
08
08
08
ENDCHAR

STARTCHAR sterling
ENCODING 163
SWIDTH 565 0
DWIDTH 11 0
BBX 8 12 2 0
BITMAP
1E
33
60
60
60
30
FE
30
30
60
F1
9F
ENDCHAR

STARTCHAR currency
ENCODING 164
SWIDTH 565 0
DWIDTH 11 0
BBX 10 9 1 1
BITMAP
C0C0
7F80
3300
2100
2100
2100
3300
7F80
C0C0
ENDCHAR

STARTCHAR yen
ENCODING 165
SWIDTH 565 0
DWIDTH 11 0
BBX 10 12 1 0
BITMAP
6180
6180
6180
2100
F3C0
1200
1E00
FFC0
0C00
0C00
0C00
3F00
ENDCHAR

STARTCHAR brokenbar
ENCODING 166
SWIDTH 565 0
DWIDTH 11 0
BBX 2 17 5 -4
BITMAP
C0
C0
C0
C0
C0
C0
C0
00
00
00
C0
C0
C0
C0
C0
C0
C0
ENDCHAR

STARTCHAR section
ENCODING 167
SWIDTH 565 0
DWIDTH 11 0
BBX 7 14 3 -2
BITMAP
7C
C6
C6
C0
F0
98
8C
C6
62
32
1E
06
C6
FC
ENDCHAR

STARTCHAR dieresis
ENCODING 168
SWIDTH 565 0
DWIDTH 11 0
BBX 7 2 2 11
BITMAP
C6
C6
ENDCHAR

STARTCHAR copyright
ENCODING 169
SWIDTH 565 0
DWIDTH 11 0
BBX 11 11 0 1
BITMAP
1F00
60C0
4E40
D160
D060
D060
D060
D160
4E40
60C0
1F00
ENDCHAR

STARTCHAR ordfeminine
ENCODING 170
SWIDTH 565 0
DWIDTH 11 0
BBX 8 9 2 3
BITMAP
3C
46
06
7E
C6
C6
7B
00
FE
ENDCHAR

STARTCHAR guillemotleft
ENCODING 171
SWIDTH 565 0
DWIDTH 11 0
BBX 7 7 2 0
BITMAP
22
66
CC
CC
CC
66
22
ENDCHAR

STARTCHAR logicalnot
ENCODING 172
SWIDTH 565 0
DWIDTH 11 0
BBX 8 5 2 2
BITMAP
FF
FF
03
03
03
ENDCHAR

STARTCHAR hyphen
ENCODING 173
SWIDTH 565 0
DWIDTH 11 0
BBX 9 2 1 4
BITMAP
FF80
FF80
ENDCHAR

STARTCHAR registered
ENCODING 174
SWIDTH 565 0
DWIDTH 11 0
BBX 11 11 0 1
BITMAP
1F00
60C0
5E40
D160
D160
DE60
D160
D160
5140
60C0
1F00
ENDCHAR

STARTCHAR macron
ENCODING 175
SWIDTH 565 0
DWIDTH 11 0
BBX 7 1 2 11
BITMAP
FE
ENDCHAR

STARTCHAR degree
ENCODING 176
SWIDTH 565 0
DWIDTH 11 0
BBX 6 6 3 6
BITMAP
78
CC
84
84
CC
78
ENDCHAR

STARTCHAR plusminus
ENCODING 177
SWIDTH 565 0
DWIDTH 11 0
BBX 8 11 2 0
BITMAP
18
18
18
FF
FF
18
18
18
00
FF
FF
ENDCHAR

STARTCHAR twosuperior
ENCODING 178
SWIDTH 565 0
DWIDTH 11 0
BBX 5 7 3 5
BITMAP
70
98
18
30
60
C8
F8
ENDCHAR

STARTCHAR threesuperior
ENCODING 179
SWIDTH 565 0
DWIDTH 11 0
BBX 5 7 3 5
BITMAP
70
98
18
30
18
98
70
ENDCHAR

STARTCHAR acute
ENCODING 180
SWIDTH 565 0
DWIDTH 11 0
BBX 5 3 3 10
BITMAP
38
60
80
ENDCHAR

STARTCHAR mu
ENCODING 181
SWIDTH 565 0
DWIDTH 11 0
BBX 10 13 1 -4
BITMAP
30C0
30C0
30C0
3080
2180
6180
6180
6380
7DC0
4000
C000
C000
C000
ENDCHAR

STARTCHAR paragraph
ENCODING 182
SWIDTH 565 0
DWIDTH 11 0
BBX 9 14 1 -2
BITMAP
3F80
7A00
FA00
FA00
FA00
FA00
7A00
3A00
0A00
0A00
0A00
0A00
0A00
0A00
ENDCHAR

STARTCHAR periodcentered
ENCODING 183
SWIDTH 565 0
DWIDTH 11 0
BBX 4 4 4 3
BITMAP
60
F0
F0
60
ENDCHAR

STARTCHAR cedilla
ENCODING 184
SWIDTH 565 0
DWIDTH 11 0
BBX 5 3 3 -3
BITMAP
30
18
F0
ENDCHAR

STARTCHAR onesuperior
ENCODING 185
SWIDTH 565 0
DWIDTH 11 0
BBX 6 7 3 5
BITMAP
30
F0
30
30
30
30
FC
ENDCHAR

STARTCHAR ordmasculine
ENCODING 186
SWIDTH 565 0
DWIDTH 11 0
BBX 7 9 2 3
BITMAP
38
44
C6
C6
C6
44
38
00
FE
ENDCHAR

STARTCHAR guillemotright
ENCODING 187
SWIDTH 565 0
DWIDTH 11 0
BBX 7 7 2 0
BITMAP
88
CC
66
66
66
CC
88
ENDCHAR

STARTCHAR onequarter
ENCODING 188
SWIDTH 565 0
DWIDTH 11 0
BBX 10 15 1 -2
BITMAP
6000
E000
6000
6000
6000
60C0
F380
0E00
3980
E380
8580
0980
1FC0
0180
0180
ENDCHAR

STARTCHAR onehalf
ENCODING 189
SWIDTH 565 0
DWIDTH 11 0
BBX 10 15 1 -2
BITMAP
6000
E000
6000
6000
6000
60C0
F380
0E00
3B80
E4C0
80C0
0180
0300
0640
07C0
ENDCHAR

STARTCHAR threequarters
ENCODING 190
SWIDTH 565 0
DWIDTH 11 0
BBX 10 15 1 -2
BITMAP
7000
9800
1800
3000
1800
98C0
7380
0E00
3980
E380
8580
0980
1FC0
0180
0180
ENDCHAR

STARTCHAR questiondown
ENCODING 191
SWIDTH 565 0
DWIDTH 11 0
BBX 7 12 2 -1
BITMAP
0C
1E
0C
00
0C
1C
70
C0
C0
C0
C6
7C
ENDCHAR

STARTCHAR Agrave
ENCODING 192
SWIDTH 565 0
DWIDTH 11 0
BBX 9 14 1 0
BITMAP
3800
0C00
0000
1C00
1C00
3600
3600
3600
6300
6300
7F00
C180
C180
C180
ENDCHAR

STARTCHAR Aacute
ENCODING 193
SWIDTH 565 0
DWIDTH 11 0
BBX 9 14 1 0
BITMAP
0700
0C00
0000
1C00
1C00
3600
3600
3600
6300
6300
7F00
C180
C180
C180
ENDCHAR

STARTCHAR Acircumflex
ENCODING 194
SWIDTH 565 0
DWIDTH 11 0
BBX 9 14 1 0
BITMAP
1E00
3300
0000
1C00
1C00
3600
3600
3600
6300
6300
7F00
C180
C180
C180
ENDCHAR

STARTCHAR Atilde
ENCODING 195
SWIDTH 565 0
DWIDTH 11 0
BBX 9 14 1 0
BITMAP
3900
4E00
0000
1C00
1C00
3600
3600
3600
6300
6300
7F00
C180
C180
C180
ENDCHAR

STARTCHAR Adieresis
ENCODING 196
SWIDTH 565 0
DWIDTH 11 0
BBX 9 14 1 0
BITMAP
6300
6300
0000
1C00
1C00
3600
3600
3600
6300
6300
7F00
C180
C180
C180
ENDCHAR

STARTCHAR Aring
ENCODING 197
SWIDTH 565 0
DWIDTH 11 0
BBX 9 14 1 0
BITMAP
3E00
6300
3E00
1C00
1C00
3600
3600
3600
6300
6300
7F00
C180
C180
C180
ENDCHAR

STARTCHAR AE
ENCODING 198
SWIDTH 565 0
DWIDTH 11 0
BBX 10 12 1 0
BITMAP
1FC0
3C00
2C00
2C00
2C00
6F80
4C00
4C00
FC00
8C00
8C00
8FC0
ENDCHAR

STARTCHAR Ccedilla
ENCODING 199
SWIDTH 565 0
DWIDTH 11 0
BBX 8 16 2 -4
BITMAP
3E
63
C0
C0
C0
C0
C0
C0
C0
C1
63
3E
10
1C
06
3C
ENDCHAR

STARTCHAR Egrave
ENCODING 200
SWIDTH 565 0
DWIDTH 11 0
BBX 7 14 3 0
BITMAP
70
18
00
FE
C0
C0
C0
FC
C0
C0
C0
C0
C0
FE
ENDCHAR

STARTCHAR Eacute
ENCODING 201
SWIDTH 565 0
DWIDTH 11 0
BBX 7 14 3 0
BITMAP
0E
18
00
FE
C0
C0
C0
FC
C0
C0
C0
C0
C0
FE
ENDCHAR

STARTCHAR Ecircumflex
ENCODING 202
SWIDTH 565 0
DWIDTH 11 0
BBX 7 14 3 0
BITMAP
3C
66
00
FE
C0
C0
C0
FC
C0
C0
C0
C0
C0
FE
ENDCHAR

STARTCHAR Edieresis
ENCODING 203
SWIDTH 565 0
DWIDTH 11 0
BBX 7 14 3 0
BITMAP
66
66
00
FE
C0
C0
C0
FC
C0
C0
C0
C0
C0
FE
ENDCHAR

STARTCHAR Igrave
ENCODING 204
SWIDTH 565 0
DWIDTH 11 0
BBX 8 14 2 0
BITMAP
70
18
00
FF
18
18
18
18
18
18
18
18
18
FF
ENDCHAR

STARTCHAR Iacute
ENCODING 205
SWIDTH 565 0
DWIDTH 11 0
BBX 8 14 2 0
BITMAP
0E
18
00
FF
18
18
18
18
18
18
18
18
18
FF
ENDCHAR

STARTCHAR Icircumflex
ENCODING 206
SWIDTH 565 0
DWIDTH 11 0
BBX 8 14 2 0
BITMAP
3C
66
00
FF
18
18
18
18
18
18
18
18
18
FF
ENDCHAR

STARTCHAR Idieresis
ENCODING 207
SWIDTH 565 0
DWIDTH 11 0
BBX 8 14 2 0
BITMAP
66
66
00
FF
18
18
18
18
18
18
18
18
18
FF
ENDCHAR

STARTCHAR Eth
ENCODING 208
SWIDTH 565 0
DWIDTH 11 0
BBX 9 12 1 0
BITMAP
7E00
6300
6180
6180
6180
F980
F980
6180
6180
6180
6300
7E00
ENDCHAR

STARTCHAR Ntilde
ENCODING 209
SWIDTH 565 0
DWIDTH 11 0
BBX 8 14 2 0
BITMAP
79
8E
00
C3
E3
E3
D3
D3
CB
CB
C7
C7
C3
C3
ENDCHAR

STARTCHAR Ograve
ENCODING 210
SWIDTH 565 0
DWIDTH 11 0
BBX 8 14 2 0
BITMAP
70
18
00
3C
66
C3
C3
C3
C3
C3
C3
C3
66
3C
ENDCHAR

STARTCHAR Oacute
ENCODING 211
SWIDTH 565 0
DWIDTH 11 0
BBX 8 14 2 0
BITMAP
0E
18
00
3C
66
C3
C3
C3
C3
C3
C3
C3
66
3C
ENDCHAR

STARTCHAR Ocircumflex
ENCODING 212
SWIDTH 565 0
DWIDTH 11 0
BBX 8 14 2 0
BITMAP
3C
66
00
3C
66
C3
C3
C3
C3
C3
C3
C3
66
3C
ENDCHAR

STARTCHAR Otilde
ENCODING 213
SWIDTH 565 0
DWIDTH 11 0
BBX 8 14 2 0
BITMAP
71
9E
00
3C
66
C3
C3
C3
C3
C3
C3
C3
66
3C
ENDCHAR

STARTCHAR Odieresis
ENCODING 214
SWIDTH 565 0
DWIDTH 11 0
BBX 8 14 2 0
BITMAP
66
66
00
3C
66
C3
C3
C3
C3
C3
C3
C3
66
3C
ENDCHAR

STARTCHAR multiply
ENCODING 215
SWIDTH 565 0
DWIDTH 11 0
BBX 7 8 2 1
BITMAP
82
C6
6C
38
38
6C
C6
82
ENDCHAR

STARTCHAR Oslash
ENCODING 216
SWIDTH 565 0
DWIDTH 11 0
BBX 9 14 1 -1
BITMAP
0180
1F80
3300
6380
6780
6580
6D80
7980
7980
7180
7180
7300
DE00
C000
ENDCHAR

STARTCHAR Ugrave
ENCODING 217
SWIDTH 565 0
DWIDTH 11 0
BBX 8 14 2 0
BITMAP
70
18
00
C3
C3
C3
C3
C3
C3
C3
C3
C3
66
3C
ENDCHAR

STARTCHAR Uacute
ENCODING 218
SWIDTH 565 0
DWIDTH 11 0
BBX 8 14 2 0
BITMAP
0E
18
00
C3
C3
C3
C3
C3
C3
C3
C3
C3
66
3C
ENDCHAR

STARTCHAR Ucircumflex
ENCODING 219
SWIDTH 565 0
DWIDTH 11 0
BBX 8 14 2 0
BITMAP
3E
63
00
C3
C3
C3
C3
C3
C3
C3
C3
C3
66
3C
ENDCHAR

STARTCHAR Udieresis
ENCODING 220
SWIDTH 565 0
DWIDTH 11 0
BBX 8 14 2 0
BITMAP
66
66
00
C3
C3
C3
C3
C3
C3
C3
C3
C3
66
3C
ENDCHAR

STARTCHAR Yacute
ENCODING 221
SWIDTH 565 0
DWIDTH 11 0
BBX 8 14 2 0
BITMAP
0E
18
00
C3
C3
42
66
24
3C
18
18
18
18
18
ENDCHAR

STARTCHAR Thorn
ENCODING 222
SWIDTH 565 0
DWIDTH 11 0
BBX 7 12 3 0
BITMAP
C0
C0
FC
CE
C6
C6
C6
CE
FC
C0
C0
C0
ENDCHAR

STARTCHAR germandbls
ENCODING 223
SWIDTH 565 0
DWIDTH 11 0
BBX 8 12 2 0
BITMAP
3C
66
C6
C6
C6
CC
C6
C3
C3
C3
DB
DE
ENDCHAR

STARTCHAR agrave
ENCODING 224
SWIDTH 565 0
DWIDTH 11 0
BBX 9 12 1 0
BITMAP
3800
0C00
0000
3E00
6300
0300
0300
7F00
C300
C300
E700
7B80
ENDCHAR

STARTCHAR aacute
ENCODING 225
SWIDTH 565 0
DWIDTH 11 0
BBX 9 12 1 0
BITMAP
0E00
1800
0000
3E00
6300
0300
0300
7F00
C300
C300
E700
7B80
ENDCHAR

STARTCHAR acircumflex
ENCODING 226
SWIDTH 565 0
DWIDTH 11 0
BBX 9 13 1 0
BITMAP
0800
1C00
6300
0000
3E00
6300
0300
0300
7F00
C300
C300
E700
7B80
ENDCHAR

STARTCHAR atilde
ENCODING 227
SWIDTH 565 0
DWIDTH 11 0
BBX 9 12 1 0
BITMAP
3C80
4F00
0000
0000
3E00
6300
0300
7F00
C300
C300
E700
7B80
ENDCHAR

STARTCHAR adieresis
ENCODING 228
SWIDTH 565 0
DWIDTH 11 0
BBX 9 12 1 0
BITMAP
6300
6300
0000
3E00
6300
0300
0300
7F00
C300
C300
E700
7B80
ENDCHAR

STARTCHAR aring
ENCODING 229
SWIDTH 565 0
DWIDTH 11 0
BBX 9 13 1 0
BITMAP
1E00
3300
1E00
0000
3E00
6300
0300
0300
7F00
C300
C300
E700
7B80
ENDCHAR

STARTCHAR ae
ENCODING 230
SWIDTH 565 0
DWIDTH 11 0
BBX 10 9 1 0
BITMAP
7B80
CEC0
0CC0
0CC0
7FC0
CC00
CC00
CEC0
7780
ENDCHAR

STARTCHAR ccedilla
ENCODING 231
SWIDTH 565 0
DWIDTH 11 0
BBX 8 14 2 -5
BITMAP
3E
63
C0
C0
C0
C0
C1
63
3E
10
1C
06
46
3C
ENDCHAR

STARTCHAR egrave
ENCODING 232
SWIDTH 565 0
DWIDTH 11 0
BBX 9 12 1 0
BITMAP
3800
0C00
0000
3E00
6300
C180
C180
FF80
C000
C000
6180
3E00
ENDCHAR

STARTCHAR eacute
ENCODING 233
SWIDTH 565 0
DWIDTH 11 0
BBX 9 12 1 0
BITMAP
0700
0C00
0000
3E00
6300
C180
C080
FF80
C000
C000
6180
3E00
ENDCHAR

STARTCHAR ecircumflex
ENCODING 234
SWIDTH 565 0
DWIDTH 11 0
BBX 9 13 1 0
BITMAP
0800
1C00
6300
0000
3E00
6300
C180
C180
FF80
C000
C000
6180
3E00
ENDCHAR

STARTCHAR edieresis
ENCODING 235
SWIDTH 565 0
DWIDTH 11 0
BBX 9 12 1 0
BITMAP
6300
6300
0000
3E00
6300
C180
C180
FF80
C000
C000
6180
3E00
ENDCHAR

STARTCHAR igrave
ENCODING 236
SWIDTH 565 0
DWIDTH 11 0
BBX 8 12 2 0
BITMAP
70
18
00
78
18
18
18
18
18
18
18
FF
ENDCHAR

STARTCHAR iacute
ENCODING 237
SWIDTH 565 0
DWIDTH 11 0
BBX 8 12 2 0
BITMAP
1C
30
00
78
18
18
18
18
18
18
18
FF
ENDCHAR

STARTCHAR icircumflex
ENCODING 238
SWIDTH 565 0
DWIDTH 11 0
BBX 8 13 2 0
BITMAP
10
38
C6
00
78
18
18
18
18
18
18
18
FF
ENDCHAR

STARTCHAR idieresi0s
ENCODING 239
SWIDTH 565 0
DWIDTH 11 0
BBX 8 12 2 0
BITMAP
C6
C6
00
78
18
18
18
18
18
18
18
FF
ENDCHAR

STARTCHAR eth
ENCODING 240
SWIDTH 565 0
DWIDTH 11 0
BBX 9 12 1 0
BITMAP
3000
1B00
0C00
3600
0300
3F00
6180
C180
C180
C180
6300
3E00
ENDCHAR

STARTCHAR ntilde
ENCODING 241
SWIDTH 565 0
DWIDTH 11 0
BBX 7 12 2 0
BITMAP
72
9C
00
DC
FE
C6
C6
C6
C6
C6
C6
C6
ENDCHAR

STARTCHAR ograve
ENCODING 242
SWIDTH 565 0
DWIDTH 11 0
BBX 9 12 1 0
BITMAP
3800
0C00
0000
3E00
6300
C180
C180
C180
C180
C180
6300
3E00
ENDCHAR

STARTCHAR oacute
ENCODING 243
SWIDTH 565 0
DWIDTH 11 0
BBX 9 12 1 0
BITMAP
0E00
1800
0000
3E00
6300
C180
C180
C180
C180
C180
6300
3E00
ENDCHAR

STARTCHAR ocircumflex
ENCODING 244
SWIDTH 565 0
DWIDTH 11 0
BBX 9 13 1 0
BITMAP
0800
1C00
6300
0000
3E00
6300
C180
C180
C180
C180
C180
6300
3E00
ENDCHAR

STARTCHAR otilde
ENCODING 245
SWIDTH 565 0
DWIDTH 11 0
BBX 9 12 1 0
BITMAP
3900
4E00
0000
3E00
6300
C180
C180
C180
C180
C180
6300
3E00
ENDCHAR

STARTCHAR odieresis
ENCODING 246
SWIDTH 565 0
DWIDTH 11 0
BBX 9 12 1 0
BITMAP
6300
6300
0000
3E00
6300
C180
C180
C180
C180
C180
6300
3E00
ENDCHAR

STARTCHAR divide
ENCODING 247
SWIDTH 565 0
DWIDTH 11 0
BBX 8 8 2 1
BITMAP
18
18
00
FF
FF
00
18
18
ENDCHAR

STARTCHAR oslash
ENCODING 248
SWIDTH 565 0
DWIDTH 11 0
BBX 10 10 1 -1
BITMAP
3EC0
6380
C380
C780
CD80
D980
F180
6300
FE00
8000
ENDCHAR

STARTCHAR ugrave
ENCODING 249
SWIDTH 565 0
DWIDTH 11 0
BBX 7 12 2 0
BITMAP
70
18
00
C6
C6
C6
C6
C6
C6
C6
CE
76
ENDCHAR

STARTCHAR uacute
ENCODING 250
SWIDTH 565 0
DWIDTH 11 0
BBX 7 12 2 0
BITMAP
0E
18
00
C6
C6
C6
C6
C6
C6
C6
CE
76
ENDCHAR

STARTCHAR ucircumflex
ENCODING 251
SWIDTH 565 0
DWIDTH 11 0
BBX 7 13 2 0
BITMAP
10
38
C6
00
00
C6
C6
C6
C6
C6
C6
CE
76
ENDCHAR

STARTCHAR udieresis
ENCODING 252
SWIDTH 565 0
DWIDTH 11 0
BBX 7 12 2 0
BITMAP
C6
C6
00
C6
C6
C6
C6
C6
C6
C6
CE
76
ENDCHAR

STARTCHAR yacute
ENCODING 253
SWIDTH 565 0
DWIDTH 11 0
BBX 8 15 2 -3
BITMAP
0E
18
00
C3
C3
C3
66
66
24
3C
18
18
10
30
30
ENDCHAR

STARTCHAR thorn
ENCODING 254
SWIDTH 565 0
DWIDTH 11 0
BBX 8 15 2 -3
BITMAP
C0
C0
C0
DC
E6
C3
C3
C3
C3
C3
E6
DC
C0
C0
C0
ENDCHAR

STARTCHAR ydieresis
ENCODING 255
SWIDTH 565 0
DWIDTH 11 0
BBX 8 15 2 -3
BITMAP
66
66
00
C3
C3
C3
66
66
24
3C
18
18
10
30
30
ENDCHAR
ENDFONT
